<?xml version="1.0" standalone="no"?>
<!DOCTYPE svg PUBLIC "-//W3C//DTD SVG 20010904//EN"
 "http://www.w3.org/TR/2001/REC-SVG-20010904/DTD/svg10.dtd">
<svg version="1.0" xmlns="http://www.w3.org/2000/svg"
 width="277.000000pt" height="277.000000pt" viewBox="0 0 277.000000 277.000000"
 preserveAspectRatio="xMidYMid meet">
<metadata>
Created by potrace 1.14, written by Peter Selinger 2001-2017
</metadata>
<g transform="translate(0.000000,277.000000) scale(0.100000,-0.100000)"
fill="#000000" stroke="none">
<path d="M1072 2640 c-57 -16 -105 -30 -107 -32 -4 -3 53 -138 62 -148 3 -3
14 6 25 20 11 14 42 49 69 78 27 29 49 57 49 63 0 5 7 9 16 9 17 0 16 32 -1
36 -5 1 -57 -11 -113 -26z"/>
<path d="M1598 2625 c-10 -13 -18 -26 -18 -30 0 -3 -10 -17 -22 -30 -34 -36
-57 -62 -133 -155 -38 -47 -72 -87 -75 -90 -3 -3 -38 -44 -77 -93 l-72 -87 24
-49 c14 -27 25 -54 25 -60 0 -6 5 -11 10 -11 6 0 9 -3 8 -7 -3 -9 51 -133 57
-133 3 0 30 11 61 25 167 74 373 64 514 -24 46 -29 139 -123 170 -171 93 -145
101 -341 20 -501 -50 -97 -165 -204 -277 -255 -29 -14 -53 -27 -53 -31 0 -9
53 -126 67 -149 13 -21 15 -21 46 -6 18 8 34 19 37 22 3 4 19 14 35 23 17 8
40 25 52 36 12 12 25 21 28 21 11 0 122 117 168 177 56 73 118 192 152 292 13
40 24 76 24 79 -1 4 0 9 1 12 21 54 30 257 17 365 -7 57 -39 186 -58 230 -7
17 -13 32 -13 35 -4 15 -52 106 -58 108 -5 2 -8 8 -8 13 0 18 -84 130 -136
183 -122 124 -297 233 -426 266 -24 6 -50 13 -58 15 -8 2 -23 -7 -32 -20z"/>
<path d="M860 2540 c-14 -11 -29 -20 -34 -20 -4 0 -21 -10 -36 -22 -15 -13
-43 -34 -61 -48 -54 -40 -147 -139 -194 -205 -84 -118 -158 -314 -167 -439 -2
-20 -5 -36 -8 -36 -8 0 -5 -208 4 -270 24 -176 106 -355 229 -497 45 -52 143
-147 178 -171 25 -17 24 -27 -3 -30 -13 -1 -48 -8 -78 -17 -30 -8 -63 -17 -72
-19 -72 -18 -197 -125 -233 -200 -22 -46 -23 -52 -8 -63 17 -13 52 -10 97 6
79 31 290 33 413 5 102 -23 415 -158 435 -188 4 -6 8 -8 8 -3 0 4 18 -4 40
-18 22 -14 43 -25 47 -25 5 0 25 -11 46 -25 20 -14 37 -24 37 -21 0 3 25 -8
56 -25 31 -16 64 -29 73 -29 9 0 21 -4 26 -9 15 -13 125 -33 197 -35 58 -2
180 15 218 31 8 3 20 7 27 9 33 6 129 63 172 101 57 50 107 127 106 163 0 30
-19 31 -104 7 -93 -26 -287 -16 -371 20 -8 3 -24 7 -35 9 -24 3 -181 63 -250
95 -27 12 -53 22 -57 21 -5 -1 -8 2 -8 6 0 4 -16 14 -35 21 -19 7 -35 16 -35
20 0 7 5 8 77 13 24 2 43 6 43 9 0 3 6 6 13 7 26 2 71 13 104 27 34 14 34 14
18 45 -14 28 -37 79 -40 90 0 3 -9 20 -18 38 -18 33 -28 35 -87 15 -53 -17
-259 -22 -345 -9 -113 18 -281 91 -370 160 -67 52 -199 196 -180 196 4 0 -2
12 -13 27 -19 29 -50 104 -57 142 -2 11 -6 25 -10 30 -9 16 -20 123 -18 196 1
85 35 191 99 312 50 93 105 183 138 224 12 14 28 36 36 49 8 12 39 53 68 90
28 38 52 71 52 74 0 19 -85 186 -94 186 -6 0 -22 -9 -36 -20z"/>
<path d="M1110 2041 c-8 -9 -33 -39 -55 -66 -22 -28 -48 -59 -58 -70 -21 -23
-132 -193 -132 -203 -1 -4 -8 -20 -17 -37 -20 -39 -42 -105 -43 -130 0 -11 -4
-25 -8 -32 -8 -13 -10 -111 -3 -159 11 -77 70 -171 155 -251 31 -29 61 -53 68
-53 7 0 13 -4 13 -9 0 -24 255 -111 281 -95 4 2 10 0 14 -6 4 -7 12 -7 26 0
10 6 19 7 19 3 0 -9 53 -8 115 2 71 11 139 25 143 30 2 1 -19 52 -46 111 -27
60 -60 132 -72 159 -13 28 -35 77 -50 110 -15 33 -44 98 -65 145 -21 47 -42
89 -47 95 -20 22 -87 -79 -103 -155 -9 -41 -5 -125 5 -125 1 0 3 -8 5 -17 2
-9 15 -32 29 -51 24 -31 49 -47 146 -91 29 -13 29 -19 0 -18 -70 1 -151 24
-178 49 -7 7 -18 13 -24 13 -6 0 -28 19 -50 43 -111 119 -128 252 -53 415 20
41 42 83 50 91 8 9 28 30 43 46 19 20 26 35 21 45 -21 41 -87 188 -93 208 -9
26 -16 27 -36 3z"/>
<path d="M1521 1669 c-39 -10 -76 -21 -81 -24 -8 -5 11 -56 71 -182 17 -34 31
-66 31 -70 1 -5 11 -28 24 -53 12 -25 34 -72 49 -105 62 -143 109 -235 119
-235 21 0 106 55 148 96 68 65 98 139 102 249 3 81 -33 183 -79 226 -15 13
-34 31 -43 40 -9 8 -37 25 -62 36 -91 41 -176 48 -279 22z"/>
</g>
</svg>
